<?xml version="1.0" standalone="no"?>
<!DOCTYPE svg PUBLIC "-//W3C//DTD SVG 20010904//EN"
 "http://www.w3.org/TR/2001/REC-SVG-20010904/DTD/svg10.dtd">
<svg version="1.0" xmlns="http://www.w3.org/2000/svg"
 width="900.000000pt" height="600.000000pt" viewBox="0 0 900.000000 600.000000"
 preserveAspectRatio="xMidYMid meet">

<g transform="translate(0.000000,600.000000) scale(0.100000,-0.100000)"
fill="#000000" stroke="none">
<path d="M2060 4001 c-14 -5 -53 -22 -87 -40 -74 -37 -82 -60 -28 -85 73 -35
70 -3 70 -651 0 -319 -3 -592 -7 -606 -5 -16 -20 -31 -39 -39 -58 -24 -73 -54
-43 -84 13 -13 42 -16 163 -16 134 0 150 2 166 20 23 25 14 45 -31 72 -47 27
-54 50 -54 166 l0 97 86 69 85 69 36 -34 c95 -91 233 -288 233 -333 0 -8 -13
-25 -30 -37 -36 -27 -43 -44 -30 -70 10 -18 25 -19 310 -19 295 0 299 0 314
22 20 28 6 53 -40 75 -19 10 -37 27 -40 39 -3 11 -4 118 -2 236 l3 214 35 70
c19 38 54 88 77 112 50 49 83 54 158 21 37 -16 53 -19 70 -11 21 10 23 8 29
-41 3 -29 6 -149 6 -268 0 -244 8 -290 66 -376 63 -93 147 -130 273 -121 89 7
177 47 252 116 l56 52 5 -45 c3 -25 13 -56 22 -70 17 -25 19 -26 119 -23 101
3 102 3 105 29 3 28 -10 42 -61 68 -43 22 -45 39 -46 466 -1 390 -3 398 -61
403 -66 7 -170 -40 -170 -75 0 -9 17 -30 38 -48 l37 -33 3 -233 c5 -321 3
-331 -62 -395 -100 -98 -272 -123 -361 -52 -57 44 -59 61 -65 444 -5 334 -6
353 -25 374 -18 20 -26 21 -75 15 -63 -9 -96 -8 -161 1 -36 4 -55 1 -86 -15
-46 -23 -131 -113 -170 -178 l-27 -46 -17 86 c-22 106 -41 145 -76 153 -32 8
-90 -20 -145 -71 -50 -45 -49 -67 4 -97 84 -47 83 -43 86 -361 2 -155 1 -291
-2 -303 -5 -20 -43 -44 -71 -44 -20 0 -59 46 -109 127 -63 103 -150 216 -230
301 l-70 73 120 120 c65 66 143 135 173 152 65 39 80 59 61 81 -11 14 -35 16
-169 14 -140 -3 -156 -5 -159 -21 -2 -10 10 -33 27 -53 36 -41 35 -36 15 -77
-23 -44 -111 -134 -234 -240 l-105 -91 -5 510 c-4 413 -8 514 -19 527 -14 18
-49 21 -91 8z"/>
<path d="M5519 3958 c-17 -24 -37 -54 -44 -68 -40 -76 -458 -1052 -491 -1145
-31 -88 -47 -119 -82 -157 -79 -84 -48 -108 143 -108 150 0 172 4 181 33 5 17
-4 30 -45 66 -50 45 -51 47 -51 101 0 37 15 98 43 185 l43 130 329 0 328 0 55
-150 c31 -86 55 -169 56 -194 1 -42 -1 -45 -44 -71 -30 -17 -46 -34 -48 -50
-7 -44 17 -50 200 -50 155 0 170 2 188 20 25 25 15 49 -34 79 -40 25 -50 47
-141 311 -129 376 -228 606 -379 884 -92 171 -131 226 -160 226 -9 0 -30 -19
-47 -42z m174 -533 l143 -310 -142 -3 c-79 -1 -210 -1 -293 0 l-150 3 142 317
c78 175 145 314 149 310 4 -4 72 -146 151 -317z"/>
<path d="M1221 3970 c-135 -36 -247 -124 -304 -239 -30 -61 -32 -73 -32 -166
0 -84 4 -108 24 -153 50 -111 160 -169 470 -247 163 -41 288 -84 331 -115 48
-34 72 -92 73 -174 1 -154 -100 -263 -280 -301 -86 -19 -140 -18 -228 0 -139
30 -224 89 -306 216 -51 78 -79 99 -114 85 -22 -8 -37 -54 -29 -90 11 -53 42
-103 105 -171 105 -112 246 -165 439 -165 251 0 447 105 533 287 30 64 32 75
32 178 0 100 -2 115 -28 167 -16 32 -49 79 -75 105 -74 73 -164 108 -456 177
-234 55 -316 124 -316 265 0 75 10 100 60 155 72 77 186 109 315 87 96 -17
152 -49 257 -148 l91 -87 20 25 c16 21 19 35 15 102 -6 94 -20 113 -123 162
-135 65 -328 83 -474 45z"/>
<path d="M6325 3424 c-64 -33 -95 -62 -95 -90 0 -18 11 -25 58 -40 50 -17 58
-23 69 -54 8 -25 12 -170 12 -513 1 -520 0 -532 -55 -559 -37 -18 -52 -43 -38
-66 10 -15 31 -17 155 -20 181 -3 191 -1 187 41 -2 26 -10 35 -40 49 -25 12
-40 27 -45 45 -5 16 -8 217 -8 448 0 377 2 425 18 471 24 69 76 127 145 161
49 24 69 28 142 28 67 -1 94 -5 125 -22 111 -58 165 -176 165 -358 0 -189 -63
-311 -189 -369 -61 -28 -165 -27 -241 3 -69 26 -86 26 -101 0 -24 -46 21 -88
126 -115 149 -40 320 9 435 125 66 65 104 138 125 236 54 254 -44 489 -245
588 -60 30 -72 32 -165 32 -91 0 -106 -3 -165 -31 -36 -17 -90 -54 -121 -82
l-55 -51 -23 69 c-33 105 -78 124 -176 74z"/>
<path d="M7375 3424 c-64 -33 -95 -62 -95 -90 0 -18 11 -25 58 -40 50 -17 58
-23 69 -54 8 -25 12 -170 12 -513 1 -520 0 -532 -55 -559 -37 -18 -52 -43 -38
-66 10 -15 31 -17 155 -20 181 -3 191 -1 187 41 -2 26 -10 35 -40 49 -25 12
-40 27 -45 45 -5 16 -8 217 -8 448 0 377 2 425 18 471 24 69 76 127 145 161
49 24 69 28 142 28 99 -1 145 -19 202 -83 54 -60 80 -138 86 -261 8 -172 -32
-292 -121 -363 -90 -70 -191 -82 -312 -37 -64 24 -82 24 -96 -2 -24 -46 21
-88 126 -115 149 -40 320 9 435 125 66 65 104 138 125 236 54 254 -44 489
-245 588 -60 30 -72 32 -165 32 -91 0 -106 -3 -165 -31 -36 -17 -90 -54 -121
-82 l-55 -51 -23 69 c-33 105 -78 124 -176 74z"/>
</g>
</svg>
